<?xml version="1.0" encoding="utf-8"?>
<!-- Generator: Adobe Illustrator 25.0.0, SVG Export Plug-In . SVG Version: 6.00 Build 0)  -->
<svg version="1.1" id="Layer_1" xmlns="http://www.w3.org/2000/svg" xmlns:xlink="http://www.w3.org/1999/xlink" x="0px" y="0px"
	 viewBox="0 0 504 504" style="enable-background:new 0 0 504 504;" xml:space="preserve">
<path d="M54,504h396c34.8,0,54-19.2,54-54V54c0-34.8-19.2-54-54-54H54C19.2,0,0,19.2,0,54v396C0,484.8,19.2,504,54,504L54,504z
	 M54,72c0-8.9,9.1-18,18-18h360c8.9,0,18,9.1,18,18v360c0,8.9-9.1,18-18,18H72c-8.9,0-18-9.1-18-18L54,72L54,72z"/>
<path d="M142.4,346l15.7,15.7c8.7,8.6,21.7,13.6,30.4,4.9l63.6-63.7l63.6,63.6c8.6,8.6,21.7,3.7,30.4-4.9l15.7-15.7
	c8.6-8.7,13.6-21.7,4.9-30.4L302.9,252l63.6-63.6c8.7-8.6,3.8-21.7-4.9-30.4L346,142.3c-8.7-8.6-21.7-13.6-30.4-4.9L252,201.1
	l-63.6-63.6c-8.6-8.6-21.7-3.7-30.4,4.9L142.4,158c-8.6,8.7-13.6,21.7-4.9,30.4l63.7,63.6l-63.6,63.6
	C128.8,324.3,133.7,337.3,142.4,346L142.4,346z"/>
</svg>
