<?xml version="1.0" encoding="utf-8"?>
<!-- Generator: Adobe Illustrator 25.0.0, SVG Export Plug-In . SVG Version: 6.00 Build 0)  -->
<svg version="1.1" id="Layer_1" xmlns="http://www.w3.org/2000/svg" xmlns:xlink="http://www.w3.org/1999/xlink" x="0px" y="0px"
	 viewBox="0 0 492.5 519.7" style="enable-background:new 0 0 492.5 519.7;" xml:space="preserve">
<path d="M372.8,8L147.1,233.7l-18.4,127.8l129.9-16.1l226-225.8c10.7-10.7,10.7-28,0-38.7L411.5,8C400.8-2.7,383.5-2.7,372.8,8z
	 M237.7,302.9l-56,6.9l7.8-55L392.1,52.1l48.2,48.2L237.7,302.9z"/>
<path d="M254.7,35.7V18.1c0-7.5-6.1-13.6-13.6-13.6H13.6C6.1,4.5,0,10.6,0,18.1v488c0,7.5,6.1,13.6,13.6,13.6H468
	c7.5,0,13.6-6.1,13.6-13.6V237.9c0-7.5-6.1-13.6-13.6-13.6h-17.6c-7.5,0-13.6,6.1-13.6,13.6v223.4c0,7.5-6.1,13.6-13.6,13.6H58.4
	c-7.5,0-13.6-6.1-13.6-13.6V62.9c0-7.5,6.1-13.6,13.6-13.6l182.7,0C248.6,49.3,254.7,43.2,254.7,35.7z"/>
</svg>
